Coordinates
version=1
nRows=31
nColumns=34
inDegrees=no

Units are S.I. units (second, meters, Newtons, ...)
If the header above contains a line with 'inDegrees', this indicates whether rotational values are in degrees (yes) or radians (no).

endheader
time	pelvis_tilt	pelvis_list	pelvis_rotation	pelvis_tx	pelvis_ty	pelvis_tz	hip_flexion_r	hip_adduction_r	hip_rotation_r	knee_angle_r	ankle_angle_r	subtalar_angle_r	mtp_angle_r	hip_flexion_l	hip_adduction_l	hip_rotation_l	knee_angle_l	ankle_angle_l	subtalar_angle_l	mtp_angle_l	lumbar_extension	lumbar_bending	lumbar_rotation	arm_flex_r	arm_add_r	arm_rot_r	elbow_flex_r	pro_sup_r	arm_flex_l	arm_add_l	arm_rot_l	elbow_flex_l	pro_sup_l
0.644	-0.0872556	-0.084717	0.301058	0.18366	0.971176	0.196191	0.755986	-0.217175	-0.156857	2.53814	-0.130778	-0.130247	-0.618175	0.0900703	-0.114688	0.0152237	0.747676	0.479021	0.245974	-0.336206	-0.26509	0.126717	-0.309536	-0.436664	-0.233448	-0.0585024	0.570047	1.5708	0.420032	-0.281	0.177884	1.4647	1.5708
0.648	-0.113006	-0.118478	0.308744	0.22594	0.968135	0.194703	0.835235	-0.211966	-0.184675	2.50665	-0.108917	-0.122423	-0.559073	0.0648729	-0.159859	0.0187267	0.704384	0.455283	0.282932	-0.401293	-0.206394	0.159763	-0.326334	-0.509009	-0.255893	-0.0508753	0.584191	1.5708	0.432944	-0.252266	0.15152	1.5028	1.5708
0.652	-0.123958	-0.138173	0.289769	0.266738	0.966674	0.195015	0.907635	-0.193874	-0.186949	2.47461	-0.0946931	-0.123725	-0.48419	0.0104347	-0.192414	-0.00212614	0.649929	0.407723	0.307317	-0.496488	-0.179063	0.178822	-0.316944	-0.580308	-0.281229	-0.0359766	0.614271	1.5708	0.457962	-0.229846	0.129911	1.5491	1.5708
0.656	-0.150218	-0.159863	0.277855	0.308193	0.964035	0.194568	0.989642	-0.189619	-0.196006	2.44021	-0.0821188	-0.124633	-0.292704	-0.0267261	-0.219313	-0.0126861	0.59191	0.3488	0.320362	-0.619401	-0.129369	0.197976	-0.319766	-0.658139	-0.303226	-0.0351466	0.645322	1.5708	0.472174	-0.20492	0.106485	1.59709	1.5708
0.66	-0.170072	-0.179302	0.259355	0.349975	0.961744	0.195305	1.06619	-0.167635	-0.200181	2.40066	-0.0792969	-0.132397	-0.300328	-0.0768519	-0.244622	-0.0331151	0.524462	0.277688	0.335862	-0.743871	-0.0893404	0.215359	-0.315016	-0.737492	-0.320024	-0.0458282	0.68075	1.5708	0.488957	-0.186005	0.0889859	1.64834	1.5708
0.664	-0.19342	-0.193878	0.242341	0.391462	0.959458	0.195517	1.14017	-0.157449	-0.202551	2.35979	-0.0711269	-0.141236	-0.289895	-0.122023	-0.260264	-0.0494134	0.456985	0.18704	0.341954	-0.881842	-0.0465128	0.22836	-0.313835	-0.81882	-0.335597	-0.0611859	0.719077	1.5708	0.50487	-0.168898	0.0740849	1.70057	1.5708
0.668	-0.21919	-0.206061	0.225321	0.432955	0.957182	0.196194	1.21319	-0.148269	-0.204345	2.31555	-0.0657962	-0.152129	-0.28506	-0.162518	-0.27272	-0.0710786	0.389764	0.083382	0.348109	-1.00538	-0.000894087	0.237978	-0.313231	-0.900314	-0.345513	-0.0850156	0.755862	1.5708	0.520106	-0.153346	0.0613777	1.75154	1.5708
0.672	-0.243259	-0.210077	0.209021	0.474355	0.955185	0.196169	1.27976	-0.146407	-0.199442	2.2695	-0.0590775	-0.159123	-0.277257	-0.205492	-0.272201	-0.081679	0.319738	-0.0376243	0.347483	-1.03195	0.0410142	0.240584	-0.312601	-0.980864	-0.350229	-0.116445	0.792092	1.5708	0.536404	-0.13862	0.0513728	1.80229	1.5708
0.676	-0.265496	-0.213556	0.192771	0.515839	0.953204	0.196568	1.34123	-0.142546	-0.195211	2.22101	-0.053864	-0.173232	-0.265906	-0.247852	-0.271793	-0.0971134	0.250765	-0.164188	0.332013	-1.0382	0.0807055	0.242657	-0.310222	-1.05984	-0.35001	-0.152455	0.827034	1.5708	0.554389	-0.126442	0.0447318	1.85056	1.5708
0.68	-0.28526	-0.214415	0.179216	0.557092	0.951775	0.196834	1.3955	-0.140369	-0.191152	2.16813	-0.0576359	-0.189415	-0.268345	-0.290471	-0.266379	-0.0952002	0.181056	-0.313188	0.301888	-0.996435	0.116516	0.242485	-0.309315	-1.13221	-0.344339	-0.193705	0.857384	1.5708	0.572751	-0.114974	0.0406424	1.89934	1.5708
0.684	-0.300977	-0.221474	0.166987	0.598351	0.950613	0.197495	1.44069	-0.133698	-0.194509	2.11115	-0.0568404	-0.208819	-0.254812	-0.330262	-0.270872	-0.107357	0.125709	-0.433976	0.282945	-0.784068	0.148431	0.249722	-0.308416	-1.1987	-0.333409	-0.238957	0.884134	1.5708	0.592502	-0.104564	0.0382772	1.94626	1.5708
0.688	-0.313016	-0.225743	0.154185	0.639097	0.949988	0.19795	1.47686	-0.128831	-0.197417	2.05024	-0.0505817	-0.22877	-0.277885	-0.368987	-0.270802	-0.110722	0.0844042	-0.544247	0.247254	-0.499142	0.172229	0.255742	-0.306105	-1.25604	-0.322775	-0.283979	0.907388	1.5708	0.612194	-0.0974507	0.0377761	1.99934	1.5708
0.692	-0.319264	-0.231965	0.142956	0.679564	0.949602	0.198715	1.50294	-0.120679	-0.203531	1.98679	-0.0563694	-0.258841	-0.23819	-0.404725	-0.274136	-0.124553	0.0662369	-0.602989	0.204319	-0.334791	0.187789	0.264399	-0.304196	-1.30448	-0.310861	-0.325622	0.926674	1.5708	0.634067	-0.0937516	0.0406724	2.04753	1.5708
0.696	-0.325026	-0.232224	0.135806	0.718704	0.94911	0.198814	1.52592	-0.118517	-0.203058	1.92267	-0.0447416	-0.274125	-0.247936	-0.43084	-0.270323	-0.117896	0.0693905	-0.628766	0.144198	-0.305877	0.198149	0.266928	-0.304133	-1.3416	-0.298649	-0.365401	0.940914	1.5708	0.658483	-0.0918234	0.0455515	2.09504	1.5708
0.7	-0.328119	-0.22696	0.131859	0.75737	0.948888	0.19869	1.54122	-0.121359	-0.200081	1.85655	-0.0389595	-0.291793	-0.216572	-0.449659	-0.261969	-0.100519	0.0966784	-0.62009	0.0912119	-0.270706	0.201762	0.263249	-0.305333	-1.36709	-0.287742	-0.398475	0.948568	1.5708	0.681933	-0.0953073	0.0556434	2.14362	1.5708
0.704	-0.325759	-0.218831	0.127181	0.795935	0.949067	0.1987	1.54667	-0.121096	-0.195593	1.78822	-0.0271599	-0.305429	-0.177067	-0.466437	-0.25116	-0.0839029	0.142005	-0.608197	0.0380204	-0.273471	0.195991	0.257465	-0.305111	-1.38098	-0.279012	-0.430412	0.950746	1.5708	0.703931	-0.102346	0.0663768	2.19171	1.5708
0.708	-0.317697	-0.205242	0.120386	0.833755	0.94993	0.198364	1.54115	-0.120129	-0.188823	1.71536	-0.0208984	-0.317495	-0.173093	-0.483431	-0.233047	-0.0640774	0.199283	-0.585114	0.00136558	-0.283727	0.178071	0.250799	-0.298776	-1.38529	-0.270594	-0.457125	0.951335	1.5708	0.724505	-0.11051	0.0755341	2.23754	1.5708
0.712	-0.318647	-0.192223	0.109272	0.871089	0.950429	0.198891	1.53883	-0.114817	-0.183566	1.63602	-0.0101079	-0.323407	-0.168366	-0.483497	-0.215375	-0.053367	0.271416	-0.553133	-0.00927835	-0.267562	0.173311	0.239214	-0.289612	-1.38553	-0.26607	-0.474158	0.948184	1.5708	0.73588	-0.118281	0.0903753	2.27839	1.5708
0.716	-0.317679	-0.183455	0.0994938	0.908511	0.951543	0.199595	1.5259	-0.106782	-0.182822	1.54979	0.0057428	-0.322485	-0.171206	-0.480673	-0.203567	-0.0477964	0.34971	-0.52875	-0.00970759	-0.206902	0.158982	0.23838	-0.283286	-1.37069	-0.259411	-0.499712	0.937843	1.5708	0.735634	-0.132043	0.0968991	2.3318	1.5708
0.72	-0.314543	-0.181133	0.0893385	0.946319	0.952668	0.199737	1.50365	-0.0977322	-0.190502	1.45961	0.0208669	-0.311474	-0.171491	-0.479815	-0.197751	-0.0512979	0.427157	-0.522498	-0.000278183	-0.186553	0.149112	0.245188	-0.27004	-1.36231	-0.249302	-0.522444	0.933624	1.5708	0.722653	-0.137054	0.105882	2.36159	1.5708
0.724	-0.308216	-0.180113	0.0778097	0.984087	0.95412	0.200335	1.474	-0.0849414	-0.199003	1.36699	0.0316365	-0.28737	-0.222683	-0.480869	-0.193823	-0.0611925	0.50621	-0.530218	0.014322	-0.185203	0.134298	0.252243	-0.256853	-1.34837	-0.244191	-0.53938	0.932032	1.5708	0.70674	-0.142378	0.115934	2.38529	1.5708
0.728	-0.302391	-0.180245	0.0698226	1.02207	0.955697	0.20088	1.44094	-0.0750359	-0.209821	1.2731	0.0377611	-0.251776	-0.248534	-0.478677	-0.193392	-0.0693133	0.58701	-0.544397	0.0280408	-0.201483	0.119472	0.260635	-0.247415	-1.32971	-0.239363	-0.555762	0.93197	1.5708	0.681674	-0.149037	0.124644	2.40567	1.5708
0.732	-0.290974	-0.180384	0.0673438	1.05962	0.957608	0.201312	1.40023	-0.0683669	-0.220082	1.17963	0.0396105	-0.204733	-0.292268	-0.478513	-0.195286	-0.0730755	0.670989	-0.558164	0.0379388	-0.255741	0.10041	0.265215	-0.238092	-1.30892	-0.234348	-0.561838	0.935085	1.5708	0.657329	-0.154411	0.141784	2.40814	1.5708
0.736	-0.282059	-0.180449	0.0650914	1.09768	0.959431	0.201851	1.35988	-0.0616578	-0.230065	1.08836	0.0406752	-0.144762	-0.310119	-0.475091	-0.198064	-0.0767105	0.755186	-0.566734	0.0459388	-0.246829	0.0856913	0.269956	-0.234148	-1.29054	-0.23523	-0.561966	0.948383	1.5708	0.61968	-0.1607	0.151657	2.40518	1.5708
0.74	-0.273532	-0.175691	0.063009	1.13582	0.96142	0.201816	1.31869	-0.0576714	-0.236828	0.9999	0.0376904	-0.0755522	-0.358438	-0.467721	-0.191588	-0.074001	0.843998	-0.571453	0.0298674	-0.262181	0.0716739	0.269443	-0.228974	-1.27051	-0.239453	-0.560578	0.955201	1.5708	0.577195	-0.165027	0.161198	2.39076	1.5708
0.744	-0.266216	-0.174456	0.0655833	1.17349	0.962876	0.202275	1.27858	-0.0550174	-0.246279	0.917538	0.0396042	-0.00312121	-0.368603	-0.458116	-0.195776	-0.0685409	0.932347	-0.564132	0.0469184	-0.285441	0.0563829	0.27187	-0.228449	-1.24445	-0.241023	-0.555375	0.970725	1.5708	0.532774	-0.172372	0.167358	2.37333	1.5708
0.748	-0.257134	-0.17491	0.0662198	1.21105	0.964456	0.202413	1.23666	-0.0499716	-0.259431	0.838845	0.0360892	0.0643061	-0.409627	-0.444897	-0.201317	-0.0669883	1.02688	-0.562965	0.0569373	-0.331039	0.0398492	0.275669	-0.225462	-1.21819	-0.245308	-0.546958	0.990479	1.5708	0.487791	-0.175394	0.172455	2.34412	1.5708
0.752	-0.251729	-0.172066	0.0691904	1.2485	0.96552	0.202474	1.19997	-0.0502664	-0.273302	0.768994	0.0329767	0.131289	-0.456737	-0.427944	-0.200839	-0.0586167	1.12088	-0.548331	0.049843	-0.348874	0.0256826	0.276618	-0.228437	-1.19337	-0.25472	-0.530233	1.01949	1.5708	0.437076	-0.18024	0.170852	2.31332	1.5708
0.756	-0.245776	-0.174738	0.0717136	1.28548	0.966609	0.203181	1.16175	-0.0450653	-0.294003	0.702554	0.0280143	0.182206	-0.496643	-0.405318	-0.212709	-0.0539636	1.21962	-0.539656	0.0651153	-0.341115	0.0111878	0.280694	-0.226562	-1.16059	-0.261401	-0.514371	1.03872	1.5708	0.390894	-0.18203	0.172147	2.26798	1.5708
0.76	-0.231063	-0.176041	0.072742	1.32232	0.968045	0.20295	1.11654	-0.0399303	-0.317382	0.646971	0.0211776	0.224932	-0.52602	-0.397857	-0.214915	-0.0488978	1.30918	-0.521775	0.0624355	-0.349033	-0.0150051	0.285704	-0.221392	-1.12895	-0.27449	-0.490407	1.06517	1.5708	0.349465	-0.178595	0.168063	2.21366	1.5708
0.764	-0.226205	-0.17199	0.0766865	1.35991	0.968344	0.203004	1.08423	-0.0432866	-0.341312	0.606037	0.0162935	0.25757	-0.538756	-0.380254	-0.209126	-0.0358843	1.39587	-0.500809	0.047196	-0.370499	-0.0264494	0.28186	-0.222132	-1.09536	-0.285876	-0.465015	1.0872	1.5708	0.301852	-0.176886	0.162045	2.1562	1.5708
